{
  "title": "Project Almanac 2015 720p HDCAM V2 [NEW SOURCE] x264 Pimp4003",
  "uid": 11692234,
  "size": 1946602105,
  "categoryP": "video",
  "categoryS": "movies",
  "magnet": "?xt=urn:btih:1a44e9389bbe34b84016a497cd1a18ef2e24ff87&amp;dn=Project+Almanac+2015+720p+HDCAM+V2+%5BNEW+SOURCE%5D+x264+Pimp4003&amp;tr=udp%3A%2F%2Ftracker.openbittorrent.com%3A80&amp;tr=udp%3A%2F%2Fopen.demonii.com%3A1337&amp;tr=udp%3A%2F%2Ftracker.coppersurfer.tk%3A6969&amp;tr=udp%3A%2F%2Fexodus.desync.com%3A6969",
  "seeders": 70,
  "leechers": 2,
  "uploader": "shawnmurthy",
  "files": 1,
  "time": 1423587644,
  "description": "SOURCE IS PIMP4003...THIS IS NEW SOURCE AS WELL...VIDEO STILL SHAKES A LITTLE BIT HERE AND THERE...SOURCE TOLD ME FOR SECURITY REASONS HE HAD TO DO THAT....AUDIO IS MUCH BETTER THEN PREVIOUS ONE...IT MIGHT GO OF SYNC HERE AND THERE I DID THE BEST I COULD TO SYNC IT UP...YOU EITHER LIKE IT OR YOU DONT SIMPLE AS THAT....PIMP4003\n\nSCREENSHOTS GO HERE..http://pimp4003 DOT net/torrents.php?id=1a44e9389bbe34b84016a497cd1a18ef2e24ff87\n &lt;a href=&quot;\nhttp://i.imgur.com/J3ny9bJ.jpg&quot; rel=&quot;nofollow&quot; target=&quot;_NEW&quot;&gt;\nhttp://i.imgur.com/J3ny9bJ.jpg&lt;/a&gt;\n &lt;a href=&quot;\nhttp://i.imgur.com/SpsuXOR.png&quot; rel=&quot;nofollow&quot; target=&quot;_NEW&quot;&gt;\nhttp://i.imgur.com/SpsuXOR.png&lt;/a&gt;\n\nPIMP THE ONE AND ONLY PIMPSTER.....PRESENTS\n\nfacebook DOT com/OfficialPimp4003\n &lt;a href=&quot;\nhttp://i.imgur.com/In45Pg3.jpg&quot; rel=&quot;nofollow&quot; target=&quot;_NEW&quot;&gt;\nhttp://i.imgur.com/In45Pg3.jpg&lt;/a&gt;\n\nProject Almanac 2015 720p HDCAM V2 [NEW SOURCE] x264 Pimp4003\n &lt;a href=&quot;\nhttp://www.imdb.com/title/tt2436386/&quot; rel=&quot;nofollow&quot; target=&quot;_NEW&quot;&gt;\nhttp://www.imdb.com/title/tt2436386/&lt;/a&gt;\n\nA group of teens discover secret plans of a time machine, and construct one. However, things start to get out of control.\n\nDirector: Dean Israelite\n\nWriters: Andrew Deutschman, Andrew Deutschman, 1 more credit Â»\n\nStars: Amy Landecker, Sofia Black-D'Elia, Virginia Gardner| See full cast and crew Â»\n\n\nVideo\nID                                       : 1\nFormat                                   : MPEG-4 Visual\nFormat profile                           : Simple@L3\nFormat settings, BVOP                    : No\nFormat settings, QPel                    : No\nFormat settings, GMC                     : No warppoints\nFormat settings, Matrix                  : Default (H.263)\nCodec ID                                 : 20\nDuration                                 : 1h 41mn\nBit rate                                 : 2 416 Kbps\nWidth                                    : 1 280 pixels\nHeight                                   : 536 pixels\nDisplay aspect ratio                     : 2.40:1\nFrame rate mode                          : Variable\nFrame rate                               : 59.940 fps\nMinimum frame rate                       : 59.916 fps\nMaximum frame rate                       : 60.157 fps\nColor space                              : YUV\nChroma subsampling                       : 4:2:0\nBit depth                                : 8 bits\nScan type                                : Progressive\nCompression mode                         : Lossy\nBits/(Pixel*Frame)                       : 0.059\nStream size                              : 1.72 GiB (95%)\nWriting library                          : ZJMedia MPEG Encoder\n\nAudio\nID                                       : 2\nFormat                                   : AAC\nFormat/Info                              : Advanced Audio Codec\nFormat profile                           : LC\nCodec ID                                 : 40\nDuration                                 : 1h 41mn\nBit rate mode                            : Variable\nBit rate                                 : 128 Kbps\nChannel(s)                               : 2 channels\nChannel positions                        : Front: L R\nSampling rate                            : 48.0 KHz\nCompression mode                         : Lossy\nStream size                              : 93.0 MiB (5%)",
  "parsed": {
    "xt": "urn:btih:1a44e9389bbe34b84016a497cd1a18ef2e24ff87",
    "dn": "Project Almanac 2015 720p HDCAM V2 [NEW SOURCE] x264 Pimp4003",
    "tr": [
      "udp://exodus.desync.com:6969",
      "udp://open.demonii.com:1337",
      "udp://tracker.coppersurfer.tk:6969",
      "udp://tracker.openbittorrent.com:80"
    ],
    "infoHash": "1a44e9389bbe34b84016a497cd1a18ef2e24ff87",
    "infoHashBuffer": {
      "type": "Buffer",
      "data": [
        26,
        68,
        233,
        56,
        155,
        190,
        52,
        184,
        64,
        22,
        164,
        151,
        205,
        26,
        24,
        239,
        46,
        36,
        255,
        135
      ]
    },
    "name": "Project Almanac 2015 720p HDCAM V2 [NEW SOURCE] x264 Pimp4003",
    "announce": [
      "udp://exodus.desync.com:6969",
      "udp://open.demonii.com:1337",
      "udp://tracker.coppersurfer.tk:6969",
      "udp://tracker.openbittorrent.com:80"
    ],
    "urlList": []
  },
  "previous": 24,
  "peers": 16,
  "last_updated": "2016-12-26T17:47:10.179Z"
}